<?xml version="1.0" encoding="UTF-8" ?>
<!DOCTYPE svg PUBLIC "-//W3C//DTD SVG 1.1//EN" "http://www.w3.org/Graphics/SVG/1.1/DTD/svg11.dtd">
<svg width="736pt" height="980pt" viewBox="0 0 736 980" version="1.1" xmlns="http://www.w3.org/2000/svg">
<g id="#ffffffff">
</g>
<g id="#231f20ff">
<path fill="#231f20" opacity="1.00" d=" M 365.58 0.00 L 366.47 0.00 C 371.89 3.77 376.28 9.31 377.71 15.84 C 379.68 24.21 377.58 33.03 373.39 40.38 C 372.18 42.00 372.93 43.95 373.12 45.75 C 377.00 38.38 383.80 33.01 391.08 29.23 C 392.25 38.89 390.81 49.45 384.24 57.04 C 382.29 59.91 378.88 60.92 375.80 62.04 C 376.68 74.01 377.25 86.03 376.56 98.03 C 375.77 125.64 382.35 152.75 390.67 178.87 C 394.04 169.94 398.36 161.40 401.57 152.41 C 403.40 147.38 401.58 142.12 401.06 137.04 C 399.75 125.41 397.57 113.83 397.55 102.09 C 391.91 100.22 386.35 97.04 383.41 91.67 C 380.18 85.67 380.77 78.56 381.92 72.08 C 390.25 75.97 396.73 83.62 398.04 92.86 C 398.04 86.52 398.77 80.22 399.59 73.94 C 395.35 71.04 391.40 67.17 390.12 62.02 C 387.63 53.19 391.74 44.07 397.13 37.20 C 403.35 43.35 406.54 52.24 406.34 60.93 C 406.22 64.79 404.45 68.26 403.42 71.89 C 401.89 83.50 401.45 95.34 403.13 106.96 C 404.20 116.97 408.30 126.30 409.80 136.22 C 412.92 129.00 415.52 121.55 417.65 113.98 C 412.47 110.21 407.52 105.36 405.89 98.95 C 404.59 94.25 406.06 89.46 407.35 84.93 C 414.43 88.29 418.76 95.67 420.66 103.04 C 422.68 92.82 424.34 82.46 424.22 72.01 C 412.22 70.76 404.11 57.60 407.40 46.20 C 415.37 47.24 422.22 53.14 424.08 61.01 C 424.32 59.13 424.55 57.25 424.77 55.37 C 420.02 47.64 417.07 38.00 419.86 29.05 C 422.63 19.54 429.91 12.21 437.47 6.19 C 442.31 18.55 441.35 33.17 434.37 44.54 C 432.57 47.91 429.85 50.68 428.02 54.02 C 427.03 57.29 427.57 60.81 427.52 64.18 C 429.13 59.09 430.84 53.75 434.94 50.07 C 440.76 44.32 449.28 43.26 457.04 42.62 C 454.26 51.21 449.03 59.38 441.17 64.12 C 437.08 66.73 432.33 68.04 427.62 69.00 C 427.99 74.46 427.75 79.93 427.94 85.39 C 430.30 79.20 433.99 73.30 439.70 69.71 C 443.81 66.93 448.69 65.56 453.60 65.08 C 452.21 79.36 441.40 92.11 427.32 95.26 C 425.57 113.06 421.13 130.56 414.37 147.12 C 408.04 162.71 403.77 179.03 397.46 194.63 C 396.47 196.92 395.83 199.45 396.55 201.93 C 399.93 216.06 402.06 230.48 402.84 244.99 C 407.59 238.16 413.21 231.94 417.64 224.90 C 414.29 221.10 410.23 217.39 409.29 212.15 C 407.90 207.19 410.16 202.22 412.76 198.10 C 413.59 198.30 415.24 198.71 416.07 198.92 C 412.76 195.92 409.48 192.48 408.43 187.99 C 406.72 182.58 408.77 176.99 410.30 171.80 C 417.31 173.86 423.37 179.19 425.74 186.17 C 427.86 191.52 427.40 197.36 427.67 202.99 C 429.25 196.48 430.25 189.83 431.83 183.31 C 427.86 180.32 423.70 176.99 422.08 172.09 C 419.30 165.04 421.43 157.46 423.09 150.42 C 430.37 151.99 436.33 158.40 436.81 165.91 C 437.77 171.88 435.80 177.67 433.65 183.14 C 433.21 189.08 432.89 195.06 432.27 201.01 C 435.05 194.73 439.05 188.52 445.44 185.46 C 448.80 183.75 452.60 183.36 456.26 182.68 C 456.53 187.64 456.18 192.99 452.84 196.97 C 447.87 203.23 439.27 204.39 431.78 204.54 C 431.01 209.33 430.12 214.15 428.29 218.66 C 434.24 211.64 444.08 210.85 452.63 211.93 C 451.54 215.49 450.48 219.17 448.30 222.24 C 446.05 225.08 442.73 226.92 439.34 228.06 C 434.45 229.15 429.41 228.59 424.45 228.73 C 422.02 233.66 419.03 238.29 415.66 242.62 C 411.86 247.50 409.00 253.00 406.24 258.50 C 404.36 262.21 401.28 265.59 401.26 269.98 C 400.87 275.77 399.66 281.46 399.10 287.24 C 403.47 280.55 407.16 273.42 411.95 267.00 C 419.08 256.98 427.41 247.81 436.69 239.74 C 440.90 235.99 445.95 232.82 448.56 227.63 C 456.48 212.32 459.70 195.03 460.40 177.92 C 461.08 171.92 461.44 165.85 460.19 159.90 C 452.79 160.08 445.21 157.42 440.25 151.79 C 436.52 147.32 434.89 140.98 436.55 135.34 C 439.57 135.11 442.69 137.45 445.75 138.20 C 451.11 139.69 454.80 144.21 456.89 149.16 C 455.67 145.01 454.38 140.87 453.60 136.62 C 446.88 136.58 440.07 133.00 437.18 126.77 C 433.92 120.97 433.78 114.04 434.88 107.64 C 435.14 107.55 435.65 107.38 435.91 107.30 C 443.03 110.72 448.97 116.67 451.80 124.11 C 451.50 117.06 452.32 110.06 453.39 103.11 C 446.69 96.44 448.36 85.93 451.93 78.11 C 457.23 83.00 459.13 91.12 457.48 98.05 C 456.22 102.98 455.94 108.08 455.16 113.09 C 458.35 105.19 464.26 97.55 472.47 94.62 C 473.65 91.16 472.65 87.46 473.44 83.93 C 474.66 77.75 478.19 72.20 482.50 67.69 C 485.46 73.83 488.63 80.04 489.80 86.83 C 490.60 91.22 489.47 95.62 488.53 99.89 C 489.87 94.90 491.23 89.91 492.65 84.93 C 488.71 79.44 485.65 72.92 486.10 66.01 C 486.07 59.23 488.73 52.92 490.02 46.36 C 490.40 46.34 491.16 46.29 491.55 46.26 C 496.55 50.81 500.61 56.98 500.68 63.96 C 501.22 71.40 497.44 78.08 495.27 84.96 C 497.48 82.31 499.60 79.33 502.85 77.88 C 505.90 76.31 509.39 76.38 512.73 76.24 C 512.92 80.21 512.03 84.32 509.22 87.29 C 505.55 91.50 499.93 93.18 494.57 93.91 C 493.02 100.91 491.10 108.00 487.21 114.11 C 484.76 118.10 481.86 121.81 479.75 126.00 C 484.24 123.06 488.52 119.40 493.89 118.22 C 498.96 117.01 504.30 117.99 508.97 120.19 C 507.89 123.65 505.93 126.99 502.51 128.55 C 495.14 132.48 485.81 132.19 478.63 127.95 C 475.05 136.28 470.61 144.86 470.86 154.15 C 472.50 151.12 473.99 147.86 476.67 145.57 C 484.05 139.51 493.18 135.78 502.65 134.67 C 502.31 141.33 500.95 148.31 496.45 153.48 C 489.98 161.07 479.89 164.01 470.43 165.68 C 470.70 183.31 470.40 201.17 465.59 218.27 C 479.05 211.60 492.76 204.45 503.24 193.46 C 498.87 190.18 494.58 186.13 493.17 180.67 C 491.41 172.97 492.70 165.01 494.98 157.57 C 500.29 160.45 505.17 164.97 506.58 171.06 C 508.62 177.76 506.78 184.70 505.23 191.28 C 509.08 186.94 512.44 182.07 514.41 176.58 C 516.59 169.92 515.82 162.80 515.35 155.94 C 514.48 143.30 511.85 130.74 512.67 118.02 C 508.22 115.93 504.16 112.49 502.33 107.83 C 500.38 103.40 501.40 98.39 502.81 93.97 C 509.42 95.76 513.83 101.59 514.74 108.25 C 516.34 100.46 519.80 93.26 522.61 85.89 C 519.27 80.62 519.49 73.70 522.30 68.25 C 524.16 64.45 527.04 61.29 529.97 58.29 C 531.29 64.74 534.03 71.43 532.04 78.05 C 531.10 81.55 527.99 83.66 525.76 86.28 C 522.83 96.59 518.00 106.46 517.25 117.30 C 517.09 117.80 516.78 118.80 516.62 119.30 C 518.95 114.97 521.24 110.27 525.72 107.76 C 527.85 106.00 530.81 105.67 532.96 104.14 C 533.84 102.53 532.20 100.73 532.49 98.98 C 532.05 91.21 534.32 83.26 539.03 77.03 C 540.57 74.96 542.25 72.95 543.28 70.55 C 544.91 74.13 547.10 77.43 548.51 81.11 C 552.47 90.64 552.12 101.72 548.12 111.18 C 551.94 106.68 555.67 102.10 559.88 97.96 C 553.44 94.31 550.45 86.06 552.46 79.05 C 553.49 74.14 556.43 69.95 559.82 66.37 C 563.45 70.59 566.83 75.45 567.45 81.13 C 568.03 85.17 566.71 89.14 565.17 92.82 C 566.43 91.52 567.73 90.24 569.08 89.02 C 570.66 84.92 572.11 80.47 575.56 77.50 C 579.37 74.33 584.47 73.37 589.30 73.16 C 589.46 77.50 590.03 82.38 587.02 85.97 C 582.63 91.17 575.32 91.92 568.97 92.26 C 567.62 93.89 566.26 95.52 564.92 97.15 C 567.78 95.51 570.68 93.59 574.09 93.39 C 577.88 93.00 581.47 94.58 584.96 95.81 C 582.58 100.25 579.20 104.91 573.98 106.04 C 569.05 107.45 564.05 105.60 559.34 104.23 C 554.47 110.50 550.41 117.33 546.41 124.17 C 549.20 120.67 552.18 116.92 556.59 115.46 C 563.29 113.11 570.44 114.90 577.35 114.79 C 574.35 118.61 571.94 123.12 567.58 125.61 C 560.33 129.95 551.56 130.24 543.34 130.62 C 535.42 147.48 531.92 166.06 523.86 182.87 C 521.06 188.56 517.49 193.86 513.32 198.64 C 521.55 196.23 529.44 192.80 537.05 188.88 C 536.21 181.32 535.25 173.32 538.16 166.07 C 540.77 159.70 546.48 154.64 553.18 152.97 C 556.57 163.29 553.53 174.63 546.89 182.96 C 566.14 170.05 580.78 151.03 590.01 129.90 C 590.99 125.75 589.36 121.31 590.57 117.11 C 592.47 108.07 600.45 102.12 608.14 97.99 C 607.84 103.48 610.55 109.10 608.59 114.46 C 604.87 123.39 592.86 125.51 590.18 135.09 C 585.91 146.70 578.96 157.01 573.25 167.91 C 586.60 163.28 596.21 152.43 605.03 141.93 C 606.40 138.33 606.96 134.37 609.18 131.12 C 612.49 125.36 618.64 121.59 625.13 120.55 C 630.70 120.02 636.96 119.84 641.52 123.69 C 633.24 133.69 621.44 141.86 608.22 142.96 C 600.23 155.72 588.83 166.49 575.19 172.98 C 570.27 175.17 565.59 177.99 561.88 181.95 C 544.73 199.42 523.48 212.26 501.44 222.61 C 485.78 230.36 471.27 240.14 456.46 249.36 C 449.74 253.62 445.40 260.48 440.49 266.55 C 424.94 286.33 415.11 310.44 411.82 335.35 C 421.03 324.03 432.72 315.01 445.05 307.33 C 449.28 304.73 453.27 301.76 457.39 298.99 C 453.74 291.36 449.99 282.09 453.86 273.83 C 456.49 270.11 460.26 267.27 464.09 264.87 C 468.05 269.59 467.65 276.23 467.51 282.02 C 467.32 287.01 464.43 291.23 462.02 295.40 C 470.70 288.35 478.43 280.24 485.58 271.66 C 481.89 269.40 478.30 266.38 477.10 262.06 C 474.68 254.45 477.81 246.57 481.12 239.74 C 485.96 243.96 490.22 249.42 491.14 255.94 C 491.68 259.10 490.69 262.22 490.12 265.30 C 492.44 262.17 494.45 258.83 496.41 255.46 C 494.05 250.45 496.60 244.77 499.74 240.73 C 504.83 234.29 513.40 232.97 520.68 230.33 C 521.52 236.92 521.13 244.32 516.47 249.51 C 512.24 254.83 505.05 257.53 498.36 256.33 C 496.65 261.35 494.50 266.21 491.84 270.80 C 494.91 268.79 498.06 266.28 501.92 266.25 C 506.92 266.31 511.66 268.12 516.56 268.93 C 516.53 269.29 516.45 270.01 516.42 270.37 C 513.03 274.01 509.01 277.29 504.12 278.60 C 498.67 280.07 492.88 279.33 487.65 277.39 C 484.80 281.43 482.01 285.58 478.32 288.92 C 481.82 287.30 485.64 285.81 489.57 286.68 C 495.50 288.06 500.89 291.21 505.78 294.76 C 500.47 298.19 494.54 301.65 487.96 301.22 C 482.02 301.02 476.69 298.17 471.29 296.01 C 465.83 301.03 459.69 305.23 454.24 310.26 C 436.64 325.70 421.59 344.35 411.79 365.70 C 404.55 381.20 403.56 398.52 399.32 414.89 C 398.36 418.90 397.17 422.84 396.26 426.86 C 406.30 412.02 418.22 398.47 431.75 386.73 C 433.85 384.78 436.67 383.06 437.09 379.97 C 438.36 372.10 440.43 364.32 443.83 357.08 C 440.30 353.08 437.09 348.51 436.17 343.14 C 434.94 337.72 436.97 332.37 438.86 327.38 C 446.41 329.29 451.30 336.57 451.40 344.18 C 454.21 339.21 458.31 335.18 461.65 330.61 C 463.60 324.53 466.02 318.22 471.19 314.10 C 477.72 308.62 486.63 306.61 495.01 307.44 C 497.24 307.49 499.59 308.18 501.74 307.15 C 495.56 316.18 488.50 325.28 478.54 330.35 C 474.11 332.72 469.09 333.59 464.14 334.02 C 456.39 346.13 447.71 358.79 447.11 373.66 C 453.75 368.03 460.91 363.03 467.89 357.83 C 475.37 351.99 484.90 348.46 490.30 340.25 C 497.81 329.09 503.62 316.78 507.86 304.01 C 511.48 290.75 517.66 278.42 522.89 265.76 C 530.50 246.27 540.92 227.94 553.12 210.96 C 557.27 205.20 561.45 199.42 566.44 194.33 C 568.28 192.69 568.24 190.07 568.99 187.88 C 570.24 182.72 573.68 177.76 578.87 176.01 C 583.12 174.25 587.79 174.48 592.29 174.64 C 589.68 181.81 585.44 188.83 578.53 192.55 C 575.66 194.31 572.24 194.41 569.02 194.95 C 565.51 198.97 562.96 203.71 560.10 208.19 C 563.44 205.97 566.73 203.15 570.91 202.87 C 576.81 202.17 582.39 204.89 587.29 207.88 C 579.73 215.74 566.88 220.25 556.84 214.42 C 552.52 224.07 548.32 233.77 544.14 243.49 C 549.73 242.66 555.24 240.93 559.89 237.63 C 566.06 233.30 572.20 228.67 576.82 222.63 C 583.75 213.96 589.79 204.48 598.04 196.94 C 606.60 188.18 617.02 181.43 628.10 176.28 C 628.64 169.65 631.19 162.93 636.48 158.67 C 641.74 154.69 648.89 152.39 655.33 154.69 C 656.50 161.03 653.42 167.56 648.80 171.82 C 644.21 175.89 637.86 176.48 632.05 177.24 C 627.83 177.54 624.55 180.44 621.14 182.60 C 633.10 177.20 647.75 178.63 658.84 185.46 C 658.29 187.23 656.18 187.78 654.85 188.85 C 646.67 194.27 636.59 196.53 626.88 195.38 C 621.79 194.59 618.08 190.79 613.99 188.07 C 605.97 193.84 599.71 201.65 593.25 209.04 C 599.42 204.68 606.27 200.67 613.98 200.10 C 623.47 198.91 633.15 203.00 639.33 210.20 C 633.21 217.50 623.17 220.11 613.98 219.88 C 605.85 219.89 597.69 216.76 591.92 210.97 C 587.76 216.32 584.93 222.52 581.08 228.06 C 571.01 241.19 556.35 249.46 543.45 259.42 C 538.93 263.09 536.04 268.32 534.00 273.69 C 538.44 268.51 545.09 265.04 551.98 265.06 C 555.19 264.96 558.39 265.43 561.57 265.91 C 561.24 272.51 556.43 278.21 550.11 279.93 C 544.01 281.58 537.19 283.01 531.15 280.40 C 526.68 293.92 523.11 307.77 517.50 320.89 C 515.87 324.69 514.10 328.43 512.55 332.27 C 527.94 324.78 542.72 315.84 555.60 304.51 C 562.23 298.79 568.86 292.79 573.32 285.15 C 575.77 280.90 578.47 276.81 581.51 272.96 C 579.63 264.99 577.61 256.66 579.69 248.51 C 581.12 240.58 586.92 234.43 593.19 229.81 C 599.30 238.42 598.94 250.28 593.37 259.07 C 606.22 245.84 619.60 232.65 636.09 223.98 C 636.56 218.53 638.94 212.95 643.80 210.05 C 650.65 205.67 659.30 206.41 666.78 208.62 C 666.92 208.91 667.19 209.48 667.33 209.76 C 666.37 211.94 665.44 214.13 664.47 216.31 C 664.80 216.25 665.46 216.13 665.79 216.07 C 662.76 217.49 661.46 220.95 658.63 222.68 C 652.73 227.11 644.89 226.61 638.00 225.52 C 626.09 236.74 613.18 247.04 602.85 259.83 C 596.00 268.15 589.77 276.98 583.92 286.03 C 595.27 282.38 606.98 280.11 618.54 277.24 C 618.06 272.49 617.17 267.67 617.96 262.92 C 619.49 256.90 624.47 252.70 628.66 248.46 C 630.40 246.86 631.96 244.68 633.85 243.49 C 637.36 250.25 637.78 259.15 634.38 266.18 C 632.48 270.78 628.25 273.60 624.01 275.82 C 641.37 271.19 654.91 258.81 670.59 250.73 C 670.63 243.75 673.28 236.19 679.50 232.41 C 684.25 229.69 689.65 228.41 694.83 226.76 C 694.90 231.10 695.23 235.60 693.77 239.78 C 691.20 247.52 683.96 253.30 675.93 254.45 C 674.22 254.82 672.67 253.81 671.12 253.32 C 655.90 265.23 640.57 277.79 622.14 284.37 C 614.80 286.84 607.42 289.24 599.88 291.00 C 590.57 293.33 582.33 298.43 573.93 302.88 C 571.88 303.80 570.43 305.55 569.13 307.31 C 564.28 313.70 558.38 319.15 552.81 324.88 C 559.84 323.25 566.73 320.99 573.87 319.86 C 584.52 318.14 595.25 316.81 606.03 316.32 C 619.73 315.38 633.71 315.33 646.93 311.12 C 659.57 306.88 671.45 300.64 682.98 294.00 C 686.02 292.10 689.48 290.65 691.76 287.76 C 696.90 281.51 703.17 275.99 710.66 272.77 C 718.65 269.42 727.43 268.86 736.00 268.67 L 736.00 269.77 C 732.17 278.81 726.00 287.44 716.89 291.71 C 709.17 295.62 699.95 295.30 691.98 292.32 C 680.34 303.35 667.20 313.03 652.33 319.25 C 636.69 325.75 619.65 328.51 602.76 328.48 C 618.31 332.82 633.28 339.01 648.92 343.06 C 662.47 346.18 676.56 347.94 690.42 346.15 C 695.63 341.31 701.40 336.19 708.85 335.45 C 716.91 334.12 724.89 337.27 731.11 342.25 C 725.07 347.18 717.92 351.33 710.00 351.94 C 702.84 352.57 695.68 351.18 688.80 349.32 C 682.03 351.73 674.90 352.57 667.76 352.63 C 674.35 353.72 681.33 355.04 686.48 359.64 C 689.98 363.23 692.06 367.89 693.74 372.54 C 687.25 373.77 680.26 372.83 674.71 369.11 C 668.82 365.16 664.17 359.18 662.41 352.25 C 649.70 350.94 637.20 347.96 625.15 343.75 C 611.95 339.09 598.03 336.83 584.90 331.95 C 581.67 330.60 578.22 332.00 574.96 332.48 C 550.62 337.01 526.64 345.22 505.99 359.08 C 492.29 368.05 480.74 379.76 468.77 390.82 C 461.35 397.58 453.62 404.16 447.91 412.51 C 464.53 405.24 483.01 403.33 501.00 403.65 C 507.37 403.70 513.74 401.69 519.00 398.13 C 523.06 394.90 525.08 389.86 526.99 385.20 C 521.92 380.44 517.91 374.08 517.43 367.01 C 517.10 362.40 518.74 358.02 520.50 353.85 C 523.75 355.21 527.13 356.79 529.26 359.74 C 532.01 363.26 532.77 367.79 533.14 372.12 C 536.90 365.18 542.30 359.36 548.64 354.72 C 552.63 349.80 556.26 344.24 562.01 341.14 C 570.54 336.20 581.30 337.20 589.77 341.73 C 586.06 349.38 580.08 356.70 571.46 358.78 C 564.56 360.85 557.48 358.59 551.08 355.98 C 547.62 358.96 544.19 362.12 541.96 366.16 C 537.44 374.11 535.63 383.18 533.43 391.96 C 537.00 390.28 540.55 388.35 543.31 385.47 C 553.50 375.54 566.06 367.75 580.08 364.72 C 584.13 363.48 588.34 364.27 592.42 364.91 C 595.46 359.18 599.60 353.40 605.91 351.05 C 610.18 349.21 614.93 349.33 619.48 349.60 C 619.21 353.62 618.47 357.82 615.80 361.00 C 613.43 364.41 609.52 366.09 605.82 367.63 C 614.45 367.92 623.03 366.73 631.51 365.27 C 634.74 364.04 637.29 361.48 640.58 360.33 C 648.28 357.39 657.37 358.73 664.00 363.60 C 660.05 367.97 655.14 372.03 649.10 372.79 C 642.73 374.09 636.60 371.35 631.09 368.49 C 621.17 370.30 611.16 372.62 600.99 371.98 C 595.64 371.59 590.26 370.59 584.91 371.53 C 575.87 373.03 567.82 378.04 561.11 384.11 C 551.24 393.56 540.30 402.30 527.41 407.22 C 535.33 410.05 543.33 412.69 551.03 416.11 C 558.24 412.87 566.01 410.93 573.89 410.32 C 590.88 408.59 607.94 407.54 625.03 407.61 C 634.42 407.46 643.84 406.90 653.07 405.04 C 650.46 404.91 647.87 404.75 645.28 404.51 C 645.35 397.52 646.81 390.02 651.93 384.89 C 657.69 378.49 666.50 376.36 674.74 375.49 C 672.24 383.38 670.12 391.63 665.33 398.50 C 663.78 400.90 661.31 402.40 658.95 403.89 C 664.50 402.72 669.85 400.80 675.29 399.23 C 681.78 383.92 697.85 373.37 714.28 372.80 C 713.16 389.01 698.52 403.39 682.06 403.25 C 679.19 403.29 676.19 401.90 673.46 403.25 C 667.69 405.69 661.64 407.33 655.66 409.10 C 669.75 410.45 682.75 416.61 695.16 423.04 C 689.69 427.30 683.11 430.69 676.00 430.31 C 663.15 430.49 652.17 421.55 645.67 411.11 C 631.05 412.98 616.26 412.79 601.62 414.52 C 608.22 416.65 615.67 416.43 621.54 420.54 C 626.20 423.86 630.55 427.73 634.09 432.25 C 626.07 435.71 616.41 439.39 608.02 435.03 C 601.02 430.90 599.99 421.94 599.52 414.60 C 586.61 416.13 573.66 417.73 561.03 420.84 C 584.78 432.09 607.60 446.59 633.79 451.54 C 636.49 445.94 640.63 440.75 646.50 438.29 C 651.64 435.63 657.59 436.11 663.17 436.59 C 661.39 445.42 653.80 452.16 645.08 453.88 C 652.43 454.39 659.69 455.86 667.04 456.29 C 673.74 450.95 680.92 444.88 689.97 444.65 C 696.49 444.13 702.60 447.37 707.08 451.89 C 697.80 462.47 681.47 465.36 668.89 459.32 C 653.71 459.62 638.20 460.83 623.24 457.33 C 629.83 462.72 635.82 468.80 642.04 474.61 C 646.67 470.30 652.58 466.91 659.05 466.80 C 664.67 466.45 670.24 468.34 674.91 471.38 C 670.05 478.51 660.63 482.74 652.11 480.53 C 649.92 479.93 647.29 479.62 645.94 477.56 C 645.88 477.83 645.83 478.11 645.79 478.40 C 648.84 480.87 651.56 483.72 654.33 486.49 C 660.86 486.67 668.03 486.51 673.59 490.48 C 680.61 494.98 683.44 503.31 687.02 510.42 C 679.38 509.23 670.99 510.93 664.13 506.51 C 658.65 502.65 654.26 496.81 653.28 490.06 C 652.86 486.63 648.69 486.28 646.35 484.49 C 653.28 491.93 652.80 503.33 649.11 512.19 C 648.40 513.45 648.17 515.32 646.72 515.97 C 635.02 509.10 632.72 491.75 640.42 481.05 C 637.21 478.68 634.19 476.07 631.58 473.05 C 627.19 468.65 622.48 464.57 617.46 460.91 C 624.74 470.79 624.89 484.76 618.58 495.15 C 605.46 487.15 601.46 468.72 608.63 455.44 C 604.58 453.13 600.36 451.09 595.87 449.79 C 577.77 444.35 560.33 436.88 542.05 432.02 C 548.50 439.52 555.01 447.02 560.33 455.39 C 567.66 450.99 576.68 449.41 584.94 451.94 C 591.31 453.50 596.71 457.38 601.84 461.30 C 590.74 469.79 573.75 469.21 563.22 460.00 C 567.25 465.56 570.64 471.55 574.75 477.05 C 579.75 484.03 585.70 490.31 592.26 495.83 C 594.08 497.66 596.77 496.56 599.04 496.81 C 606.46 497.24 612.66 502.28 617.02 507.96 C 623.08 515.72 626.76 525.19 627.76 534.98 C 616.43 533.35 606.68 525.95 599.90 517.03 C 596.26 512.10 593.40 506.49 592.34 500.41 C 591.38 499.89 590.43 499.39 589.49 498.89 C 595.77 513.14 592.24 530.44 583.27 542.75 C 579.39 537.54 576.32 531.57 575.52 525.05 C 574.00 514.46 578.09 503.75 584.80 495.65 C 573.99 486.75 565.91 475.25 558.15 463.74 C 559.36 472.29 561.50 480.68 563.55 489.06 C 564.28 493.42 568.14 496.22 569.48 500.33 C 574.08 511.46 570.63 524.20 564.14 533.83 C 560.38 529.26 557.15 524.05 556.17 518.12 C 554.26 509.44 556.51 500.11 561.74 492.98 C 560.41 489.95 559.27 486.83 558.46 483.63 C 558.26 488.84 556.78 494.19 553.03 497.99 C 549.12 502.10 543.69 504.52 538.11 505.28 C 537.00 500.64 538.72 495.53 540.32 491.09 C 542.91 484.17 549.56 479.86 556.44 478.01 C 553.37 467.88 551.52 457.22 546.27 447.89 C 549.30 457.26 548.25 467.85 543.15 476.31 C 540.55 480.48 537.53 484.79 532.98 486.98 C 530.82 480.20 528.57 472.97 530.33 465.84 C 531.80 457.43 537.85 450.60 545.10 446.47 C 538.26 437.28 528.14 430.24 516.83 427.96 C 505.62 426.09 494.29 428.17 483.20 429.91 C 468.02 432.56 454.35 440.34 441.96 449.20 C 433.50 455.52 425.24 462.61 419.98 471.92 C 415.24 480.32 413.48 489.89 410.76 499.04 C 408.21 507.78 409.24 516.99 408.59 525.96 C 408.79 534.99 407.85 544.00 408.34 553.02 C 408.88 577.53 412.77 601.81 415.93 626.08 C 418.59 640.05 421.45 654.90 430.83 666.13 C 434.65 671.37 439.95 675.19 444.98 679.18 C 462.34 692.54 481.89 703.27 502.91 709.60 C 520.50 715.10 538.97 716.45 556.85 720.61 C 573.07 724.05 589.94 724.70 605.58 730.65 C 612.73 733.41 619.56 737.03 626.98 739.08 C 638.39 742.35 649.97 745.94 661.97 745.76 C 669.77 745.62 677.24 748.36 684.17 751.71 C 680.08 751.84 676.03 751.24 671.95 751.25 C 659.21 751.54 646.08 753.00 633.71 749.12 C 639.32 755.91 645.22 763.10 653.56 766.60 C 660.50 769.10 667.84 766.37 674.97 766.85 C 687.03 767.40 699.81 770.23 709.20 778.24 C 700.57 778.22 692.89 772.41 684.19 773.69 C 687.78 776.34 691.59 779.00 693.65 783.12 C 698.98 793.54 705.83 803.11 713.62 811.83 C 709.17 810.30 706.42 806.15 703.40 802.80 C 696.92 795.52 692.31 786.31 683.69 781.17 C 676.26 776.16 666.99 775.73 658.33 776.15 C 664.97 782.18 666.95 791.22 670.43 799.11 C 673.61 806.56 679.74 812.45 686.98 815.97 C 693.53 819.13 700.27 823.84 702.63 831.06 C 699.39 828.63 696.76 825.42 693.09 823.57 C 686.82 819.75 679.22 818.29 673.70 813.24 C 666.43 806.96 663.47 797.49 658.15 789.76 C 652.81 780.48 644.76 773.27 636.95 766.14 C 632.83 762.78 629.36 758.66 624.91 755.72 C 627.98 766.34 631.96 776.69 635.70 787.09 C 639.63 797.51 649.03 804.21 655.23 813.09 C 642.07 805.84 631.20 794.29 625.78 780.17 C 622.00 772.65 621.46 763.76 616.28 756.93 C 610.85 749.05 602.00 744.38 593.08 741.56 C 582.76 738.13 571.80 736.88 560.96 737.16 C 553.57 737.29 546.17 736.83 538.80 737.42 C 550.39 739.65 561.70 743.47 571.93 749.41 C 587.91 758.28 600.99 771.73 610.84 787.01 C 619.17 799.42 626.37 813.62 639.52 821.67 C 647.09 826.42 656.50 823.96 664.50 827.37 C 670.66 829.62 675.98 833.84 680.02 838.96 C 682.97 842.61 685.84 846.37 689.42 849.45 C 693.08 852.70 698.19 854.18 700.98 858.42 C 696.18 857.77 691.32 856.51 687.32 853.67 C 679.82 848.62 675.39 839.89 666.98 836.06 C 659.16 831.99 650.10 834.40 641.80 832.37 C 644.46 841.45 648.13 850.44 654.19 857.82 C 659.52 864.86 667.63 869.32 672.32 876.90 C 672.90 877.78 673.45 879.57 672.16 880.14 C 670.62 881.06 669.58 879.16 668.54 878.39 C 662.36 871.87 654.87 866.74 648.97 859.94 C 640.79 850.45 634.24 839.30 631.47 827.00 C 621.08 818.44 613.25 807.41 605.96 796.22 C 596.32 781.14 583.16 767.77 566.70 760.29 C 573.69 769.91 580.49 779.81 584.92 790.92 C 591.10 805.26 593.23 821.18 601.00 834.85 C 604.93 841.72 610.73 847.63 617.92 851.05 C 623.78 853.83 629.48 857.39 633.36 862.71 C 637.80 868.15 639.48 875.42 644.74 880.27 C 648.24 884.28 653.69 885.71 657.36 889.52 C 660.54 893.26 662.90 897.73 664.09 902.52 C 658.16 898.32 653.05 893.06 646.89 889.20 C 644.24 887.50 641.27 886.19 639.10 883.86 C 636.02 880.77 634.36 876.67 632.22 872.96 C 628.95 867.24 623.91 862.54 617.79 860.04 C 613.41 858.27 609.37 855.81 605.51 853.12 C 606.25 858.37 606.82 863.69 606.31 868.99 C 606.04 873.93 604.35 878.97 605.90 883.86 C 606.97 888.22 610.40 891.34 612.88 894.92 C 616.72 899.92 619.32 905.81 620.64 911.97 C 621.31 915.73 624.39 918.29 626.65 921.14 C 623.88 921.18 620.73 921.57 618.51 919.53 C 617.15 917.71 616.34 915.55 615.23 913.61 C 614.17 912.04 615.20 910.02 614.49 908.37 C 612.16 902.26 608.05 897.01 603.46 892.43 C 600.09 889.13 597.68 884.79 597.13 880.08 C 596.00 874.41 597.57 868.72 597.41 863.04 C 597.62 854.09 595.29 844.78 589.40 837.86 C 583.72 831.38 581.02 823.07 578.29 815.07 C 573.53 800.75 566.56 787.04 556.83 775.45 C 552.80 770.64 548.50 765.90 543.07 762.66 C 537.04 758.97 530.18 757.03 523.83 754.03 C 511.38 748.49 499.78 741.18 489.00 732.88 C 486.73 731.04 484.48 729.14 481.91 727.74 C 483.48 732.48 487.57 735.61 490.33 739.61 C 495.76 746.69 500.51 754.27 504.59 762.20 C 506.53 766.49 510.58 769.08 514.12 771.93 C 519.54 776.11 525.34 779.81 531.56 782.70 C 538.92 786.33 546.09 790.35 553.58 793.74 C 559.20 796.24 563.90 800.42 567.94 804.99 C 569.41 806.50 569.45 808.67 569.74 810.63 C 560.96 801.75 549.64 795.38 537.64 792.00 C 545.57 802.15 553.49 812.32 562.19 821.83 C 569.96 830.56 575.61 841.11 579.07 852.25 C 574.63 847.84 570.74 842.85 567.63 837.42 C 562.29 828.39 554.68 821.04 547.10 813.91 C 541.43 808.59 536.65 802.44 531.35 796.77 C 525.82 790.97 518.53 787.43 512.01 782.91 C 514.94 798.22 522.63 812.40 533.07 823.88 C 540.10 831.61 549.94 836.33 556.10 844.91 C 560.67 850.37 563.42 857.04 565.49 863.79 C 569.72 867.23 573.67 871.15 576.46 875.89 C 581.36 883.80 583.51 893.01 587.97 901.15 C 590.08 905.52 593.32 909.16 596.07 913.13 C 593.55 912.08 591.14 910.71 589.36 908.62 C 580.88 899.32 576.02 887.46 568.29 877.62 C 568.53 885.03 568.94 892.46 569.78 899.84 C 570.81 906.60 571.57 914.18 576.86 919.15 C 582.69 924.43 590.56 927.08 595.80 933.10 C 598.41 935.83 599.72 939.45 600.56 943.08 C 594.92 940.99 591.71 935.49 586.87 932.22 C 582.08 928.51 575.88 926.91 571.73 922.35 C 567.90 918.60 565.59 913.59 564.32 908.44 C 562.32 900.75 561.62 892.80 561.17 884.90 C 560.53 874.72 555.16 865.70 549.55 857.48 C 543.18 848.86 535.26 841.45 526.48 835.33 C 525.91 840.15 525.78 845.02 525.15 849.84 C 523.00 863.16 523.40 877.02 527.07 890.04 C 532.25 906.36 549.68 914.69 555.24 930.82 C 556.37 934.85 558.28 939.06 557.37 943.32 C 555.15 945.16 554.98 941.28 554.41 940.05 C 552.31 931.53 547.06 924.13 540.74 918.18 C 533.68 911.52 526.80 904.49 522.03 895.95 C 522.22 909.31 534.23 918.76 535.40 931.89 C 535.92 939.15 535.06 946.92 538.55 953.60 C 540.99 958.25 542.92 963.14 544.48 968.16 C 536.48 963.58 530.74 955.23 529.22 946.13 C 528.17 941.47 529.11 936.62 527.96 931.98 C 526.20 923.06 519.39 916.41 516.15 908.11 C 512.15 898.97 512.90 888.80 511.94 879.10 C 511.80 871.49 511.47 863.84 512.36 856.27 C 513.20 846.45 512.23 836.46 509.34 827.04 C 507.21 819.42 503.74 812.29 501.10 804.86 C 494.76 788.33 489.06 771.06 477.90 757.02 C 470.35 747.49 460.25 740.58 450.71 733.24 C 444.51 728.53 439.36 722.41 432.53 718.58 C 434.94 729.69 437.59 740.74 440.09 751.83 C 441.09 756.80 444.30 760.82 446.93 765.03 C 452.46 773.62 459.22 781.52 467.42 787.68 C 479.71 797.56 487.48 812.04 491.47 827.11 C 494.30 836.86 496.37 846.90 500.64 856.17 C 501.43 857.96 502.13 859.80 502.73 861.68 C 501.47 860.82 500.11 860.06 499.07 858.95 C 490.22 845.50 489.00 828.79 481.08 814.91 C 474.32 802.44 463.93 791.88 451.40 785.18 C 455.98 793.70 460.24 802.39 464.82 810.91 C 469.82 820.74 473.01 831.77 472.22 842.88 C 471.93 848.94 469.75 854.98 471.06 861.05 C 472.81 870.35 477.31 879.07 483.73 886.01 C 488.89 891.65 494.95 896.89 497.91 904.12 C 500.36 910.48 501.43 917.27 502.48 923.98 C 496.81 915.30 494.39 904.53 486.55 897.34 C 478.60 889.91 471.68 881.11 468.12 870.71 C 464.92 885.18 463.73 901.33 470.95 914.84 C 474.46 922.33 480.66 927.94 485.62 934.40 C 493.90 945.01 497.80 958.64 497.25 972.02 C 491.94 961.28 488.93 949.24 481.06 939.93 C 476.67 934.28 470.11 930.86 465.76 925.18 C 459.94 918.14 457.31 909.22 454.50 900.70 C 450.92 906.66 448.09 913.11 446.38 919.86 C 443.25 932.76 447.77 946.07 445.01 958.99 C 444.43 962.04 443.76 965.53 440.99 967.39 C 438.96 964.56 440.22 961.06 440.40 957.92 C 441.30 948.76 437.40 940.09 437.01 931.02 C 436.35 919.92 439.19 908.82 443.89 898.83 C 451.85 881.10 454.98 861.27 452.98 841.96 C 452.56 834.03 450.65 826.28 447.64 818.96 C 447.21 831.17 445.26 843.40 441.03 854.90 C 439.07 860.55 436.60 866.01 434.27 871.52 C 431.17 878.93 429.51 886.95 429.66 894.99 C 429.87 901.73 427.01 907.98 424.95 914.25 C 423.58 903.25 422.87 892.05 423.95 880.98 C 424.80 870.73 430.16 861.74 433.34 852.15 C 438.08 838.67 441.00 824.16 439.27 809.85 C 438.28 802.39 435.40 795.25 430.90 789.22 C 418.98 772.84 408.75 754.92 403.32 735.29 C 403.13 735.33 402.76 735.39 402.57 735.42 C 404.48 751.50 405.64 767.87 403.08 783.95 C 402.41 787.34 402.90 790.81 404.10 794.02 C 407.70 804.81 412.20 815.50 413.10 826.97 C 414.05 841.30 412.03 855.65 413.30 869.97 C 413.26 871.22 413.35 874.36 411.33 873.56 C 409.42 872.05 408.91 869.47 408.46 867.21 C 407.01 858.56 406.32 849.79 406.36 841.02 C 406.15 828.56 403.86 816.12 399.45 804.47 C 394.07 814.39 392.40 825.88 392.58 837.04 C 392.19 846.03 392.48 855.04 393.04 864.01 C 393.04 867.71 395.51 870.62 397.24 873.67 C 405.74 887.98 414.11 902.72 418.01 919.04 C 419.51 925.37 421.45 932.06 419.31 938.49 C 418.09 935.39 417.53 932.10 416.61 928.92 C 412.22 913.37 404.33 898.96 394.75 886.03 C 394.24 892.83 398.11 898.73 400.23 904.94 C 406.33 919.79 411.45 935.70 409.33 951.96 C 408.18 957.70 409.33 963.75 407.25 969.32 C 404.91 964.89 405.74 959.75 405.60 954.96 C 406.18 938.15 401.59 921.37 393.76 906.58 C 392.46 912.33 390.92 918.09 390.76 924.02 C 390.69 936.05 388.98 948.12 385.38 959.62 C 383.88 964.58 383.55 969.85 384.06 975.01 C 384.22 976.52 384.05 978.00 383.56 979.46 C 379.30 970.70 378.36 960.54 379.32 950.93 C 382.67 931.77 384.56 912.28 384.04 892.82 C 380.26 898.06 376.40 903.26 372.06 908.08 C 365.34 916.12 357.80 923.71 353.17 933.25 C 347.46 944.05 345.85 956.61 339.56 967.13 C 338.70 962.33 340.92 957.78 341.61 953.12 C 343.30 942.70 346.32 932.44 351.39 923.16 C 355.27 915.70 360.45 909.04 365.72 902.52 C 371.13 895.78 375.57 888.36 380.68 881.41 C 383.04 878.41 381.48 874.44 380.99 871.08 C 378.50 859.82 376.46 848.48 374.52 837.13 C 368.55 849.67 356.67 857.99 349.80 869.93 C 346.39 876.02 344.91 882.97 344.45 889.88 C 343.72 900.63 339.02 910.65 333.24 919.57 C 333.93 913.04 335.03 906.55 336.35 900.13 C 338.07 892.49 336.45 884.60 337.96 876.94 C 339.26 868.63 343.41 861.04 348.69 854.59 C 354.25 847.91 359.46 840.94 364.62 833.94 C 375.03 819.49 380.08 801.72 380.83 784.05 C 381.48 771.62 380.93 759.06 378.42 746.85 C 374.11 765.41 365.78 782.98 354.13 798.06 C 346.42 808.69 336.47 817.61 329.95 829.11 C 323.51 839.59 320.23 851.80 319.70 864.04 C 319.21 876.05 317.17 887.96 317.31 900.00 C 318.57 920.98 317.12 942.81 308.15 962.13 C 305.66 967.18 303.41 972.79 298.52 976.04 C 303.58 963.51 306.84 950.33 309.02 937.02 C 310.42 926.74 310.43 916.35 310.33 906.00 C 310.49 904.20 309.49 901.51 307.25 902.34 C 305.61 904.90 304.90 907.92 303.43 910.58 C 300.45 916.04 296.76 921.07 292.80 925.84 C 282.71 937.83 274.61 951.51 269.10 966.18 C 268.11 968.85 267.03 971.53 265.37 973.88 C 265.41 966.20 265.76 958.29 268.62 951.07 C 274.00 938.57 281.04 926.89 287.88 915.16 C 274.64 921.74 261.90 931.52 256.41 945.73 C 256.53 937.07 260.30 928.56 266.46 922.50 C 275.27 914.22 286.72 909.04 294.49 899.60 C 299.31 893.86 302.03 886.55 302.75 879.13 C 303.53 871.70 304.96 864.35 305.53 856.90 C 297.06 865.25 285.67 869.86 277.30 878.32 C 269.72 885.74 265.02 895.44 258.14 903.42 C 257.83 899.21 260.21 895.63 262.10 892.09 C 269.36 879.28 279.38 868.22 290.62 858.77 C 295.24 855.13 298.47 850.07 303.12 846.46 C 305.24 844.59 308.29 843.09 308.54 839.92 C 311.99 822.28 321.25 806.35 332.44 792.51 C 343.79 778.48 352.29 761.91 355.51 744.06 C 356.45 738.47 356.40 732.78 356.95 727.15 C 348.09 733.68 338.41 739.07 330.05 746.26 C 323.97 751.42 319.08 757.77 313.52 763.45 C 299.93 777.81 289.03 794.87 282.85 813.71 C 279.73 822.52 278.54 831.97 274.33 840.39 C 269.77 850.90 262.14 859.59 255.69 868.94 C 252.02 874.41 246.78 879.22 245.48 885.94 C 244.68 889.46 243.46 892.86 242.26 896.27 C 239.34 904.55 240.29 913.50 238.87 922.06 C 237.41 932.21 233.23 941.71 228.60 950.78 C 226.74 954.22 225.10 958.32 221.05 959.66 C 220.91 955.04 223.69 951.23 225.35 947.14 C 229.30 937.85 232.13 928.07 233.50 918.07 C 234.72 911.11 234.42 904.01 235.52 897.04 C 225.82 914.86 213.57 932.59 195.09 942.16 C 209.78 925.61 223.04 907.30 230.81 886.42 C 225.72 888.74 220.60 890.99 215.51 893.31 C 213.46 894.20 211.67 895.65 210.48 897.57 C 205.05 905.88 199.66 914.30 195.64 923.42 C 193.00 929.62 188.77 934.98 184.04 939.72 C 183.15 939.18 182.26 938.64 181.38 938.12 C 189.92 927.80 193.39 914.69 199.03 902.80 C 195.12 904.82 191.06 906.85 188.02 910.14 C 178.61 920.70 166.93 929.05 154.43 935.56 C 153.02 936.35 151.41 936.54 149.82 936.57 C 161.74 925.51 174.97 915.44 184.03 901.72 C 171.02 901.98 160.37 910.19 149.82 916.77 C 150.03 916.30 150.44 915.35 150.65 914.88 C 159.25 906.91 168.72 899.39 180.19 896.11 C 185.62 893.88 191.86 895.14 197.10 892.40 C 200.51 890.71 204.01 889.18 207.56 887.82 C 207.59 887.41 207.64 886.59 207.67 886.17 L 207.70 887.72 C 216.70 883.72 225.91 879.90 233.87 873.99 C 242.10 868.16 248.54 860.01 252.81 850.91 C 256.91 842.00 259.75 832.59 262.41 823.17 C 248.75 829.65 234.45 835.17 222.12 844.10 C 213.25 850.41 206.20 858.82 199.15 867.01 C 195.43 871.66 191.30 876.00 186.68 879.77 C 183.97 881.94 180.63 883.90 177.01 883.25 C 186.24 877.46 192.84 868.65 198.90 859.80 C 210.88 841.87 228.59 828.34 247.89 819.09 C 252.68 816.68 257.93 815.26 262.55 812.52 C 267.14 809.74 268.64 804.29 270.58 799.64 C 275.41 787.65 282.82 776.91 290.89 766.88 C 275.97 775.25 259.86 781.70 242.89 784.31 C 235.40 785.19 230.37 791.45 226.03 797.00 C 221.69 804.16 217.19 811.25 211.84 817.72 C 206.86 823.71 201.76 829.80 198.79 837.10 C 197.01 840.92 196.55 845.36 193.82 848.72 C 192.92 840.37 197.45 832.52 201.58 825.56 C 210.42 813.89 218.02 801.33 224.75 788.34 C 212.06 795.13 198.85 802.32 189.95 813.98 C 184.14 821.46 181.00 830.73 180.00 840.09 C 178.76 853.00 175.13 865.54 170.82 877.73 C 168.81 883.76 164.57 888.69 160.03 893.00 C 155.05 897.67 150.15 902.43 145.51 907.45 C 142.72 910.38 140.70 914.08 137.19 916.27 C 137.77 910.60 141.83 906.28 145.15 901.97 C 152.08 893.14 161.63 886.12 165.76 875.32 C 156.28 882.41 144.14 885.21 135.51 893.51 C 132.62 896.63 130.12 900.10 126.92 902.93 C 120.97 908.18 116.81 915.70 109.18 918.83 C 116.02 907.32 124.13 896.58 132.98 886.54 C 128.64 887.32 123.50 886.56 119.86 889.46 L 120.49 888.27 C 111.07 890.31 101.74 893.39 93.57 898.60 C 91.86 899.77 89.90 900.53 87.80 900.44 C 87.77 899.51 87.74 898.58 87.71 897.67 C 97.27 888.75 109.23 882.57 121.89 879.45 C 131.89 877.06 141.83 874.30 152.06 873.05 C 157.17 872.65 160.54 868.21 163.34 864.40 C 169.36 855.37 168.50 844.13 170.21 833.89 C 170.87 828.64 172.37 823.57 174.05 818.58 C 165.51 826.17 158.11 834.91 149.83 842.76 C 141.47 850.81 130.55 855.37 121.62 862.68 C 116.89 866.25 113.27 871.35 107.60 873.58 C 98.42 877.43 89.28 881.92 82.01 888.87 C 78.99 891.72 76.31 895.40 71.95 896.20 C 75.68 889.77 80.83 884.26 86.54 879.55 C 94.62 872.84 104.92 869.50 112.83 862.55 C 100.63 865.29 88.57 868.67 77.04 873.50 C 80.00 869.44 84.65 867.28 88.85 864.77 C 100.31 858.22 113.68 855.21 124.15 846.92 C 116.54 844.96 108.62 845.42 100.85 845.23 C 95.54 846.80 90.11 847.83 84.72 849.06 C 84.25 848.97 83.79 848.89 83.33 848.82 C 87.75 845.69 92.72 843.29 98.04 842.19 C 106.90 840.15 116.06 841.13 125.02 839.91 C 130.69 839.28 136.64 838.01 141.04 834.14 C 152.42 824.10 162.53 812.71 173.95 802.70 C 186.48 790.65 202.10 782.41 218.20 776.21 C 232.27 770.84 246.51 765.90 260.53 760.38 C 272.88 755.53 286.03 750.25 294.44 739.46 C 298.82 733.77 302.70 727.67 306.07 721.34 C 299.68 723.30 293.43 725.74 286.93 727.33 C 270.33 731.73 253.16 734.33 237.28 741.13 C 227.74 744.94 218.74 750.24 211.02 757.04 C 205.31 762.05 201.41 768.67 196.24 774.19 C 190.01 781.10 182.47 786.85 174.14 791.01 C 167.08 794.42 160.03 797.89 153.51 802.27 C 149.82 804.51 146.55 807.64 142.24 808.68 C 142.32 807.99 142.49 806.60 142.58 805.91 C 154.13 793.43 170.30 786.70 182.50 774.98 C 175.21 776.40 167.58 777.37 161.09 781.25 C 154.71 784.92 149.55 790.33 143.15 793.95 C 143.26 792.60 142.83 790.99 144.02 790.03 C 154.42 778.73 168.69 771.09 183.85 768.69 C 186.21 768.16 189.15 768.21 190.56 765.89 C 198.42 755.93 205.46 744.87 216.37 737.89 C 213.65 737.44 210.88 737.49 208.22 738.26 C 199.08 740.68 190.11 743.99 181.99 748.89 C 172.83 754.06 165.49 761.71 157.90 768.85 C 153.29 772.92 149.14 777.48 144.69 781.72 C 140.17 785.93 137.21 791.45 134.79 797.06 C 130.74 806.66 126.01 816.23 118.68 823.79 C 114.68 827.77 110.21 831.99 104.31 832.60 C 117.70 823.05 126.07 808.21 130.97 792.80 C 124.77 795.04 119.63 799.57 115.98 804.99 C 108.36 815.92 98.37 825.53 86.10 831.04 C 83.57 832.40 80.37 833.03 78.80 835.67 C 73.71 843.08 67.68 849.95 60.36 855.23 C 58.24 856.87 55.61 857.52 53.02 857.95 C 59.68 852.29 65.48 845.60 70.10 838.18 C 60.34 841.90 50.67 845.90 40.76 849.23 C 43.27 845.37 46.84 842.24 51.04 840.35 C 59.21 836.66 67.60 833.49 75.72 829.72 C 90.28 822.60 103.09 811.90 112.40 798.62 C 105.52 800.05 98.63 801.52 91.91 803.57 C 87.86 812.12 80.39 818.52 72.28 823.11 C 67.41 825.75 62.82 828.93 57.73 831.17 C 58.72 828.56 60.57 826.44 62.94 825.00 C 70.46 819.94 77.70 813.99 82.33 806.05 C 64.36 809.40 47.36 817.74 33.79 829.99 C 37.65 822.24 44.36 816.56 50.40 810.58 C 60.92 802.40 74.61 800.61 86.65 795.62 C 70.64 791.71 54.33 788.22 37.75 788.71 C 51.79 781.43 68.10 784.81 83.01 786.76 C 91.62 788.37 100.41 787.98 109.07 787.11 C 113.77 786.54 118.94 787.15 123.06 784.36 C 134.60 776.84 143.63 766.29 152.89 756.25 C 140.89 756.49 130.46 763.29 119.67 767.72 C 109.69 772.85 97.83 771.82 87.54 768.20 C 94.06 767.19 100.78 768.13 107.20 766.28 C 121.10 763.27 132.15 753.16 146.00 750.02 C 150.58 748.92 155.48 749.08 159.84 747.14 C 166.28 744.45 170.99 739.07 176.86 735.47 C 160.74 732.28 143.75 733.57 128.46 739.71 C 120.41 742.92 112.54 746.54 104.47 749.67 C 99.91 751.33 97.70 756.01 94.05 758.89 C 89.75 762.56 84.22 764.11 78.91 765.68 C 74.50 766.97 70.63 769.48 66.45 771.31 C 68.09 765.30 74.63 762.95 79.94 761.17 C 85.24 759.84 89.66 756.54 93.92 753.30 C 83.24 754.01 71.82 754.39 62.50 760.32 C 57.70 763.34 52.85 767.70 46.72 766.75 C 48.91 763.59 52.22 761.53 55.20 759.22 C 62.22 753.99 70.12 749.42 78.95 748.36 C 84.90 747.08 90.97 749.39 96.90 747.91 C 104.50 746.22 110.82 741.48 117.49 737.74 C 127.05 732.55 137.14 727.92 147.90 725.92 C 157.88 724.36 168.01 725.27 177.97 726.49 C 195.08 728.31 211.52 722.31 228.16 719.50 C 240.23 716.94 252.46 714.50 263.83 709.53 C 272.29 706.11 280.22 701.57 288.15 697.10 C 295.32 692.79 302.80 688.75 308.75 682.77 C 319.04 672.66 324.87 658.80 327.44 644.78 C 331.69 622.36 334.60 599.70 336.90 577.01 C 338.28 561.05 337.84 545.01 337.91 529.01 C 337.82 522.51 338.40 515.90 336.84 509.52 C 334.12 496.86 327.04 485.83 320.47 474.89 C 315.06 466.15 306.03 460.67 297.14 456.04 C 274.62 443.70 248.74 437.78 223.10 438.66 C 212.23 439.20 200.92 440.63 191.53 446.56 C 182.28 452.53 175.21 461.48 170.06 471.10 C 178.20 474.81 183.60 483.08 184.64 491.85 C 185.84 498.28 184.76 504.89 182.76 511.04 C 175.97 507.62 169.43 502.65 166.40 495.46 C 164.60 491.51 164.73 487.09 164.68 482.85 C 162.21 488.49 158.38 493.33 154.28 497.86 C 155.21 507.05 155.23 517.42 148.99 524.91 C 143.98 530.71 137.36 535.05 130.36 538.10 C 124.66 522.63 134.27 504.67 148.87 498.23 C 150.61 497.28 152.95 496.93 153.88 494.95 C 160.46 483.34 164.01 470.35 168.03 457.71 C 163.47 460.86 159.51 464.75 155.26 468.29 C 144.07 478.20 132.71 487.93 121.29 497.57 C 126.07 504.52 125.94 513.53 124.09 521.44 C 122.21 528.04 118.67 534.26 113.67 539.00 C 108.98 532.02 105.21 523.68 106.44 515.08 C 106.81 510.92 108.92 507.26 110.85 503.66 C 105.55 506.25 104.24 512.49 100.73 516.77 C 96.12 524.04 87.97 527.59 80.38 530.88 C 79.05 521.63 80.97 510.84 88.76 504.85 C 93.99 500.80 100.98 501.57 107.00 502.98 C 115.24 496.58 123.41 490.09 131.27 483.22 C 120.51 485.28 108.91 483.88 99.42 478.24 C 98.72 477.87 98.26 477.31 98.05 476.55 C 103.83 471.18 110.66 465.60 119.00 465.73 C 126.70 466.32 133.22 471.02 139.07 475.68 C 148.26 465.49 157.70 455.50 168.31 446.77 C 163.31 446.95 158.99 449.80 154.11 450.60 C 142.48 453.12 130.47 453.85 119.07 457.48 C 111.67 459.52 104.90 463.27 97.54 465.44 C 97.57 477.54 93.97 490.46 84.54 498.61 C 82.09 501.14 78.69 502.56 76.49 505.34 C 74.67 501.09 72.23 496.84 72.59 492.04 C 72.44 481.93 79.46 473.00 88.01 468.29 C 83.28 469.62 78.38 470.08 73.56 470.89 C 69.44 475.30 65.54 480.08 60.25 483.18 C 52.68 488.23 43.38 489.54 34.45 489.19 C 34.86 483.56 36.65 477.83 40.82 473.85 C 47.70 466.68 58.55 464.76 68.04 466.20 C 71.03 466.46 74.21 467.64 77.12 466.36 C 88.62 461.88 99.67 456.24 110.24 449.88 C 104.87 447.90 99.49 445.90 94.02 444.20 C 89.57 450.22 85.46 457.07 78.59 460.60 C 73.40 463.42 67.31 462.94 61.63 462.71 C 62.04 455.86 63.47 447.71 69.94 443.95 C 74.14 441.17 79.29 441.38 84.10 441.37 C 78.89 439.83 73.53 438.83 68.15 438.04 C 62.63 442.10 55.97 444.85 49.03 444.76 C 40.32 445.09 31.78 441.91 24.64 437.09 C 32.91 429.40 44.68 425.09 55.94 427.40 C 56.49 426.92 57.05 426.44 57.60 425.96 L 56.06 425.76 C 56.58 420.20 58.09 414.37 62.47 410.56 C 68.75 404.57 78.54 404.23 86.26 407.41 C 93.01 400.77 97.85 392.22 99.38 382.82 C 89.48 386.42 79.99 391.21 69.67 393.60 C 69.30 399.73 66.96 406.01 61.99 409.88 C 58.78 412.87 54.39 413.92 50.17 414.56 C 49.78 406.73 53.03 398.54 59.98 394.46 C 57.89 394.68 55.35 393.91 53.74 395.68 C 46.67 402.01 37.73 407.16 27.95 406.78 C 21.84 406.76 16.10 403.95 11.56 400.01 C 14.79 393.26 21.60 389.04 28.90 388.06 C 38.13 386.14 46.79 391.62 55.99 390.84 C 67.63 390.19 79.16 387.03 89.41 381.44 C 99.34 376.39 107.39 368.57 116.20 361.91 C 107.76 361.69 99.40 360.32 91.15 358.60 C 90.88 364.45 88.21 370.12 83.66 373.86 C 76.92 379.43 67.91 381.34 59.36 381.67 C 60.58 369.51 70.13 359.40 81.67 356.09 C 75.11 355.00 68.65 353.42 62.05 352.53 C 61.99 358.50 60.12 364.57 55.77 368.81 C 49.56 375.08 40.66 377.51 32.19 378.80 C 31.81 367.59 39.60 357.96 48.98 352.74 C 46.12 352.74 43.26 352.41 40.40 352.53 C 34.66 359.13 28.82 366.25 20.43 369.58 C 14.09 372.70 6.93 372.96 0.00 372.71 L 0.00 368.62 C 1.29 364.45 3.11 360.33 6.19 357.16 C 11.15 352.24 18.22 350.07 25.06 349.65 C 32.12 348.75 39.23 352.44 46.08 349.39 C 42.19 348.08 38.26 346.66 34.93 344.20 C 27.40 338.69 22.60 330.22 19.91 321.43 C 30.85 320.63 42.37 324.82 49.41 333.40 C 52.85 337.30 54.19 342.55 54.31 347.65 C 59.55 347.55 64.84 347.43 70.00 348.54 C 62.02 344.17 58.04 335.64 54.33 327.78 C 59.64 326.43 65.71 325.38 70.68 328.36 C 78.21 332.82 82.12 341.82 81.69 350.39 C 90.64 352.27 99.79 353.41 108.95 353.44 C 101.71 351.02 95.65 346.00 90.85 340.17 C 89.53 338.44 87.58 336.94 87.10 334.73 C 94.42 333.12 102.39 333.26 108.98 337.20 C 115.19 340.22 118.76 346.62 119.89 353.22 C 128.58 352.37 137.17 350.06 144.79 345.73 C 151.45 341.84 158.46 338.61 165.32 335.12 C 150.43 332.50 136.15 327.48 121.92 322.50 C 118.63 326.93 114.50 331.12 108.94 332.42 C 103.96 334.22 98.74 332.65 93.94 331.11 C 96.76 325.51 101.79 320.93 107.91 319.27 C 96.99 318.02 85.97 318.77 75.00 318.53 C 71.48 318.17 68.38 319.99 65.09 320.87 C 55.05 323.20 43.59 320.32 36.65 312.49 C 35.79 311.53 35.92 310.71 37.02 310.03 C 43.89 303.80 54.25 301.78 62.93 305.05 C 67.45 306.83 70.58 310.66 73.08 314.65 C 78.61 314.18 84.07 313.11 89.63 312.99 C 82.56 310.04 77.48 303.95 72.97 297.99 C 81.67 294.50 92.11 295.52 99.52 301.43 C 103.01 304.45 103.39 309.34 104.22 313.58 C 115.86 314.73 127.22 317.82 138.25 321.64 C 153.23 326.74 169.24 327.83 184.96 327.63 C 191.06 327.71 196.87 325.56 202.92 325.18 C 212.45 324.08 222.01 325.41 231.48 326.46 C 229.47 321.86 224.51 320.11 220.50 317.71 C 205.39 309.14 188.94 302.93 171.87 299.65 C 168.27 305.57 163.04 311.01 156.08 312.69 C 151.11 314.27 145.89 313.27 141.03 311.86 C 143.27 306.67 146.89 302.18 151.51 298.92 C 141.37 298.37 131.24 297.52 121.08 297.30 C 105.55 296.84 90.22 292.22 76.97 284.13 C 71.74 288.32 65.69 291.84 58.96 292.78 C 50.80 294.17 42.03 291.92 35.75 286.48 C 40.87 282.44 46.57 278.70 53.10 277.53 C 58.47 276.46 63.99 277.24 69.15 278.89 C 65.19 276.64 61.80 272.94 57.06 272.44 C 50.13 271.37 43.35 268.40 38.55 263.18 C 33.44 257.94 31.89 250.30 32.67 243.22 C 40.01 243.57 47.80 245.35 53.17 250.71 C 58.47 255.70 60.64 263.20 60.23 270.33 C 64.08 271.82 67.91 273.37 71.75 274.87 C 65.15 269.50 63.92 260.31 66.01 252.48 C 73.30 253.40 80.42 257.81 83.19 264.81 C 85.15 269.35 84.72 274.46 83.22 279.06 C 101.44 285.41 121.38 290.52 140.48 284.95 C 138.39 283.21 136.19 281.60 133.98 280.03 C 125.46 273.77 118.55 265.71 110.97 258.42 C 106.65 262.20 100.81 264.60 95.03 263.34 C 91.16 262.86 88.06 260.37 85.14 258.02 C 91.38 252.81 100.23 250.90 107.71 254.59 C 103.23 250.62 98.57 246.88 93.66 243.48 C 91.30 247.22 88.44 251.00 84.08 252.49 C 79.42 254.53 74.22 253.75 69.60 252.03 C 73.27 245.13 80.64 239.75 88.79 241.19 C 86.31 239.87 83.71 238.77 81.06 237.86 C 81.84 237.41 82.63 236.97 83.43 236.54 C 88.27 238.10 93.02 239.98 97.39 242.60 C 94.19 235.96 95.69 228.12 99.97 222.34 C 103.84 225.03 107.32 228.61 108.68 233.23 C 110.31 238.64 108.94 244.28 108.00 249.68 C 112.74 253.38 117.17 257.46 121.58 261.55 C 121.80 261.61 122.26 261.72 122.48 261.77 C 119.16 254.35 122.15 245.79 126.97 239.78 C 134.37 247.17 135.49 259.29 130.39 268.30 C 139.24 274.96 149.44 279.82 160.15 282.62 C 167.90 284.71 175.93 285.24 183.90 285.92 C 179.47 282.34 174.70 279.18 170.52 275.29 C 162.16 267.79 155.25 258.62 150.64 248.37 C 149.61 246.39 148.91 244.16 147.43 242.45 C 145.32 240.75 142.75 239.78 140.36 238.55 C 127.73 232.08 115.10 225.06 104.92 215.02 C 100.81 216.77 96.58 218.74 92.00 218.59 C 85.52 218.66 79.64 215.53 74.17 212.40 C 80.78 207.46 89.62 203.52 97.70 207.39 C 93.85 203.60 89.79 200.00 85.19 197.14 C 80.14 201.47 72.70 201.66 66.77 199.16 C 59.67 196.21 54.31 190.30 50.21 183.96 C 60.36 179.80 72.47 182.20 80.74 189.22 C 83.10 191.26 84.73 194.12 87.60 195.54 C 90.50 197.11 93.31 198.86 95.84 200.99 C 95.40 198.67 94.58 196.29 95.16 193.92 C 96.01 189.84 98.81 186.60 101.22 183.35 C 105.39 186.51 107.79 191.78 107.36 197.01 C 107.24 200.75 105.01 203.90 103.25 207.04 C 109.49 212.08 115.63 217.29 122.55 221.39 C 129.11 225.73 136.56 228.40 143.42 232.19 C 141.23 225.43 138.74 218.78 135.77 212.33 C 132.41 214.82 128.28 216.46 124.05 215.55 C 117.37 214.04 112.24 208.95 108.08 203.78 C 113.20 201.91 118.69 200.50 124.18 201.29 C 127.17 201.64 129.58 203.64 132.14 205.06 C 127.53 195.45 121.70 186.51 116.04 177.50 C 113.17 179.95 110.04 182.68 106.04 182.72 C 98.55 183.48 91.95 179.37 85.91 175.52 C 88.21 172.16 92.21 170.46 95.79 168.81 C 101.01 166.54 106.90 167.93 111.58 170.81 C 110.31 169.13 109.08 167.44 107.87 165.72 C 102.67 163.94 97.48 161.49 93.82 157.25 C 89.15 152.50 87.02 145.96 86.67 139.42 C 98.87 140.99 109.19 151.72 109.96 164.05 C 114.06 168.16 118.17 172.30 121.83 176.82 C 118.92 171.20 115.38 165.53 115.22 159.01 C 114.88 152.68 118.42 147.13 121.38 141.82 C 126.90 144.76 130.19 150.83 130.31 157.00 C 130.49 164.78 128.27 172.53 124.56 179.33 C 127.03 182.23 129.48 185.15 131.83 188.16 C 132.11 185.10 132.23 181.95 133.48 179.09 C 135.68 173.57 140.17 169.50 143.95 165.07 C 146.35 169.69 149.02 174.76 147.88 180.14 C 146.68 186.41 140.93 190.32 135.81 193.37 C 139.59 198.93 143.14 204.68 145.81 210.86 C 146.97 202.79 150.62 195.18 155.49 188.69 C 158.38 193.28 160.86 198.52 160.42 204.09 C 159.96 210.90 155.46 216.96 149.47 220.04 C 152.21 227.02 154.26 234.28 157.49 241.06 C 164.91 257.08 177.73 270.21 192.89 279.10 C 206.53 287.00 220.62 294.10 234.94 300.70 C 231.84 296.28 228.33 292.17 225.35 287.67 C 218.33 276.88 212.92 265.15 208.04 253.27 C 202.97 256.72 197.31 259.68 191.12 260.30 C 184.66 260.94 178.19 257.97 173.95 253.16 C 177.39 250.01 181.15 246.92 185.77 245.71 C 192.51 244.20 199.59 245.30 205.85 248.14 C 203.36 242.15 200.56 236.30 198.06 230.32 C 190.24 231.40 181.65 232.44 174.53 228.20 C 169.72 225.76 167.03 220.87 164.95 216.12 C 170.04 214.26 175.59 213.50 180.93 214.62 C 186.17 215.80 190.44 219.26 194.19 222.93 C 189.78 214.27 184.73 205.81 178.28 198.50 C 167.17 197.80 157.56 189.40 154.27 178.96 C 153.18 175.45 153.55 171.75 153.52 168.13 C 161.62 169.82 169.97 173.31 174.69 180.48 C 178.55 185.49 180.03 191.71 182.43 197.43 C 186.23 202.11 190.67 206.35 193.61 211.69 C 192.39 207.63 191.79 203.25 192.85 199.09 C 193.78 195.61 196.23 192.87 198.21 189.95 C 201.94 191.94 203.84 196.02 205.07 199.87 C 206.94 207.30 204.03 214.94 199.92 221.08 C 207.50 234.98 214.36 249.25 221.49 263.39 C 226.21 272.63 232.06 281.31 238.97 289.05 C 246.93 298.70 257.61 305.70 265.27 315.63 C 269.37 321.33 275.53 324.91 281.06 329.02 C 276.97 317.38 276.29 305.00 274.59 292.88 C 273.52 284.62 270.52 276.62 265.93 269.67 C 259.50 273.99 252.08 278.37 244.03 277.30 C 238.93 276.86 234.68 273.77 230.73 270.79 C 233.89 267.19 237.86 264.19 242.49 262.82 C 249.68 261.05 257.26 262.53 263.76 265.90 C 261.46 262.67 259.54 259.20 257.52 255.81 C 250.68 254.96 243.37 253.69 238.00 248.99 C 233.73 245.29 231.64 239.76 230.99 234.26 C 237.16 233.91 243.91 234.01 249.02 237.99 C 254.34 241.53 257.11 247.41 260.17 252.77 C 272.18 265.79 281.62 282.15 283.45 300.02 C 283.86 295.07 284.80 289.82 288.18 285.96 C 290.84 282.54 294.76 280.53 298.57 278.65 C 301.14 284.34 301.71 291.00 299.49 296.89 C 296.91 303.55 291.63 308.84 285.52 312.38 C 286.15 319.79 288.10 327.06 290.76 333.99 C 292.38 338.40 295.38 342.14 298.79 345.32 C 311.26 358.03 324.87 369.61 336.54 383.10 C 336.33 374.93 334.57 366.91 333.44 358.84 C 328.12 327.04 314.22 296.97 294.42 271.61 C 281.90 255.78 269.27 239.82 260.04 221.78 C 258.38 217.95 254.11 216.49 250.44 215.33 C 248.04 217.95 246.28 221.16 243.43 223.36 C 238.20 227.74 231.04 230.39 224.22 228.74 C 218.87 226.93 214.65 222.64 211.88 217.82 C 218.15 215.39 224.32 212.41 231.06 211.49 C 235.74 210.74 240.40 212.01 245.03 212.60 C 232.93 207.46 220.96 201.98 209.43 195.65 C 196.06 188.28 184.47 178.05 174.47 166.57 C 172.13 163.90 169.60 161.38 167.04 158.92 C 156.57 164.89 141.44 165.98 132.35 156.94 C 136.90 153.17 141.86 149.15 147.91 148.37 C 151.83 147.74 155.64 149.01 159.00 150.93 C 156.86 148.90 155.29 145.74 152.10 145.31 C 146.33 144.27 141.05 141.12 137.40 136.54 C 132.53 130.39 131.85 122.28 131.57 114.74 C 135.12 114.83 138.76 114.71 142.17 115.82 C 148.74 118.14 153.76 123.93 155.72 130.54 C 157.23 135.14 156.73 140.03 156.80 144.78 C 175.86 156.91 191.59 173.83 211.96 183.98 C 207.76 170.85 204.06 157.55 199.10 144.68 C 193.64 147.60 187.06 149.15 181.03 147.12 C 177.43 146.08 174.57 143.54 172.00 140.92 C 176.32 136.87 181.85 133.26 188.02 133.72 C 191.24 133.85 193.69 136.19 196.20 137.94 C 193.50 132.26 190.59 126.63 186.92 121.51 C 173.10 122.78 160.49 110.17 161.32 96.42 C 169.02 97.81 177.55 99.74 182.51 106.39 C 186.74 110.99 186.93 117.83 191.33 122.31 C 190.87 118.68 190.41 114.91 191.66 111.37 C 192.67 107.58 195.44 104.66 198.26 102.09 C 201.25 106.62 204.58 111.44 204.75 117.07 C 204.65 122.60 199.89 126.17 196.39 129.79 C 202.97 139.78 207.47 150.94 211.26 162.23 C 211.23 155.19 211.84 147.28 217.09 142.01 C 220.14 138.50 224.82 137.33 229.21 136.54 C 231.69 142.30 232.40 149.00 229.99 154.90 C 226.87 161.73 220.53 167.17 213.09 168.65 C 215.87 175.56 219.17 182.31 223.68 188.27 C 226.01 191.68 230.42 192.27 234.00 193.69 C 232.38 191.35 230.72 188.90 230.27 186.03 C 229.16 181.40 230.77 176.75 231.91 172.29 C 236.00 173.51 239.70 176.42 241.22 180.49 C 242.64 185.55 242.01 191.00 240.07 195.83 C 243.61 197.08 247.10 198.47 250.57 199.91 C 247.28 187.19 248.32 173.93 247.34 160.95 C 246.34 148.75 243.72 136.73 240.12 125.04 C 233.09 128.70 225.13 132.13 217.06 130.07 C 212.07 129.00 208.62 124.95 205.94 120.90 C 209.09 117.31 213.11 114.32 217.87 113.32 C 224.70 111.46 231.84 114.00 237.51 117.83 C 235.77 114.03 234.08 110.21 232.39 106.39 C 227.90 108.48 222.84 109.83 217.89 108.77 C 210.50 107.71 204.47 102.43 200.87 96.10 C 205.36 94.51 210.07 93.22 214.87 93.50 C 220.23 93.78 224.88 96.63 228.95 99.89 C 226.90 96.33 224.62 92.91 222.49 89.40 C 215.67 86.48 209.30 82.04 205.22 75.73 C 202.42 71.80 201.00 67.13 199.60 62.57 C 207.16 62.06 216.03 63.48 220.78 70.03 C 224.96 75.31 225.45 82.23 226.73 88.58 C 228.35 91.68 230.85 94.25 232.64 97.26 C 231.05 88.49 232.17 78.17 239.73 72.38 C 242.37 75.11 245.12 78.05 245.95 81.90 C 248.50 90.41 244.15 99.55 237.47 104.88 C 245.83 119.49 251.26 135.65 254.49 152.13 C 257.42 166.96 260.21 182.01 266.45 195.89 C 267.59 176.95 275.20 159.26 277.58 140.54 C 270.02 139.43 262.12 137.73 256.02 132.84 C 250.51 128.27 248.06 120.93 248.09 113.94 C 255.15 113.34 262.81 114.13 268.86 118.10 C 274.06 121.45 276.36 127.48 278.30 133.06 C 278.61 126.07 277.85 119.09 277.17 112.14 C 270.69 112.18 263.80 112.10 258.01 108.82 C 252.84 105.70 250.11 100.03 248.41 94.46 C 253.32 93.25 258.46 93.11 263.45 93.79 C 269.05 94.75 272.81 99.39 275.73 103.88 C 273.75 97.79 272.37 91.44 269.45 85.70 C 264.04 85.31 258.55 83.25 254.92 79.08 C 250.06 73.87 248.73 66.54 247.87 59.72 C 251.12 59.69 254.50 59.27 257.60 60.50 C 262.45 62.15 266.01 66.29 268.14 70.82 C 270.11 75.04 270.11 79.80 271.34 84.23 C 271.60 80.05 270.83 75.64 272.67 71.71 C 274.34 67.56 277.78 64.57 281.23 61.91 C 282.94 64.14 284.29 66.61 285.50 69.14 C 285.40 67.33 285.33 65.52 285.30 63.71 C 293.62 64.21 302.92 66.87 307.51 74.41 C 310.32 78.43 310.01 83.66 308.62 88.13 C 314.46 94.49 320.60 100.61 325.36 107.87 C 323.97 100.66 325.41 92.51 330.98 87.35 C 335.74 90.80 339.66 95.92 339.81 102.02 C 340.54 108.73 337.20 114.77 334.73 120.75 C 333.59 122.86 335.15 124.97 335.88 126.93 C 338.33 132.23 340.59 137.62 342.44 143.16 C 343.49 139.86 344.50 136.42 346.77 133.72 C 350.68 128.86 356.11 125.63 361.17 122.12 C 364.04 128.19 364.69 135.84 360.77 141.62 C 356.93 146.65 351.28 149.82 346.10 153.28 C 349.18 162.76 352.32 172.21 355.20 181.76 C 359.38 196.38 367.23 209.69 376.19 221.87 C 376.27 212.16 374.46 202.58 372.94 193.03 C 369.81 173.17 367.01 153.13 367.45 132.97 C 367.41 130.62 367.65 127.97 365.88 126.13 C 359.06 117.78 352.95 108.88 346.86 99.99 C 341.65 92.97 337.57 85.11 334.94 76.77 C 330.18 77.01 325.26 75.72 320.70 77.54 C 320.62 76.93 320.55 76.31 320.46 75.70 C 312.55 74.24 308.07 66.91 303.76 60.88 C 312.90 56.27 325.25 57.99 332.13 65.84 C 331.89 64.37 331.67 62.90 331.45 61.43 C 325.35 58.20 319.11 54.54 315.35 48.53 C 309.83 40.73 309.09 30.67 310.75 21.51 C 318.35 22.65 326.24 25.69 330.70 32.31 C 336.55 40.62 336.85 51.36 335.30 61.05 C 337.39 74.25 344.57 85.99 352.34 96.64 C 357.23 103.08 362.16 109.55 368.04 115.14 C 368.21 103.56 370.03 92.12 371.39 80.65 C 363.94 82.68 355.24 80.87 349.75 75.27 C 342.55 68.93 340.02 58.41 342.17 49.24 C 349.59 52.80 357.37 55.92 363.74 61.27 C 367.81 64.22 369.89 68.92 372.24 73.19 C 372.47 63.70 371.14 54.27 369.79 44.89 C 369.60 43.12 369.06 41.40 368.17 39.85 C 364.61 33.48 362.22 26.35 361.94 19.02 C 361.55 12.49 363.28 6.06 365.58 0.00 M 287.63 77.83 C 287.65 84.95 282.79 90.55 277.94 95.17 C 283.31 108.03 285.63 122.10 284.62 135.99 C 284.20 147.78 281.72 159.36 279.33 170.88 C 280.93 167.94 283.14 165.29 286.03 163.55 C 291.42 160.31 297.98 161.16 303.97 161.34 C 302.54 166.53 301.16 172.20 296.68 175.69 C 291.40 180.77 283.88 181.93 276.86 182.37 C 275.18 195.75 276.21 210.05 283.07 221.95 C 290.73 234.55 301.14 245.12 311.28 255.71 C 319.08 264.13 324.64 274.34 332.43 282.76 C 332.66 271.51 332.64 260.09 330.23 249.05 C 329.53 246.48 329.25 243.55 327.26 241.58 C 325.92 240.60 327.24 238.91 326.62 237.63 C 324.24 230.77 321.44 224.04 319.40 217.06 C 314.91 217.60 310.38 219.01 305.89 217.67 C 296.90 216.23 291.11 207.24 290.12 198.75 C 294.20 198.61 298.39 197.53 302.41 198.79 C 305.86 199.95 309.11 201.77 311.85 204.19 C 314.29 206.44 315.78 209.46 317.83 212.04 C 316.59 207.02 315.06 202.04 314.60 196.86 C 311.40 193.69 307.95 190.46 306.62 186.00 C 304.42 178.75 307.38 171.10 311.52 165.14 C 316.75 167.99 322.37 171.54 324.16 177.60 C 325.85 184.31 322.02 190.69 318.42 196.05 C 318.82 204.81 322.89 212.90 325.58 221.13 C 325.91 218.91 326.09 216.65 326.78 214.50 C 329.12 207.44 336.14 203.11 342.90 201.03 C 343.67 205.65 345.44 210.43 343.81 215.06 C 342.24 222.43 336.54 227.90 330.37 231.75 C 339.68 252.60 345.36 275.14 346.38 297.99 C 346.54 303.87 348.37 309.52 350.44 314.97 C 354.54 326.06 357.72 337.53 359.27 349.27 C 360.63 345.32 360.96 341.13 361.67 337.05 C 364.95 314.83 372.00 293.32 374.37 270.95 C 374.90 264.92 375.48 258.89 376.34 252.90 C 376.81 250.57 376.08 248.18 374.78 246.24 C 362.96 229.05 355.14 209.43 349.25 189.51 C 347.82 185.06 346.67 180.51 345.16 176.09 C 344.02 172.71 340.58 171.12 337.85 169.23 C 330.75 164.61 324.09 158.98 318.06 153.27 C 314.31 157.23 308.62 159.52 303.09 159.27 C 297.73 158.80 293.34 155.46 289.58 151.90 C 292.97 148.85 297.27 146.57 301.87 146.19 C 306.87 146.03 311.50 148.30 315.67 150.85 C 312.81 147.55 310.33 143.90 307.07 140.97 C 301.03 135.34 296.83 127.27 297.29 118.86 C 297.64 115.55 299.78 112.83 301.33 110.00 C 304.52 111.86 308.06 113.75 309.76 117.23 C 313.32 124.01 312.89 132.16 310.82 139.33 C 319.86 149.18 330.26 157.82 341.74 164.68 C 339.87 156.17 337.57 147.72 334.44 139.57 C 329.50 140.94 323.65 140.80 319.57 137.33 C 315.50 133.88 313.88 128.46 313.29 123.34 C 319.63 123.80 326.26 125.17 330.94 129.81 C 326.43 120.22 321.58 110.78 315.64 101.99 C 311.03 104.09 306.16 105.93 301.00 105.83 C 295.66 106.00 289.55 104.63 286.30 100.02 C 290.46 95.87 295.88 91.84 302.09 92.37 C 305.37 92.38 308.21 94.19 310.98 95.74 C 309.03 93.62 307.54 90.71 305.03 89.37 C 297.57 89.18 290.58 84.74 287.63 77.83 M 472.29 95.35 C 472.94 100.23 472.93 105.39 470.86 109.96 C 468.26 116.50 462.12 121.05 455.50 122.98 C 456.38 131.32 459.90 139.10 463.17 146.73 L 463.96 146.95 C 466.48 138.13 470.50 129.79 475.44 122.08 C 479.40 116.38 483.32 110.66 486.85 104.69 L 484.51 103.93 C 486.72 104.98 485.10 106.72 484.28 108.27 C 481.02 105.41 477.78 102.39 475.79 98.48 C 474.90 97.16 474.37 94.67 472.29 95.35 M 532.98 105.44 C 532.47 109.08 532.04 112.88 530.07 116.12 C 527.35 121.53 522.21 125.04 516.97 127.71 C 517.95 136.76 519.55 145.93 523.26 154.29 C 528.43 141.26 535.23 128.91 543.35 117.49 C 538.69 114.82 535.56 110.34 533.55 105.47 L 532.98 105.44 M 418.32 201.02 C 423.57 206.56 422.38 214.69 420.09 221.26 C 423.11 216.71 424.85 211.49 426.70 206.39 C 423.93 204.55 421.20 202.66 418.32 201.02 M 179.05 341.14 C 156.58 349.46 134.32 358.96 114.45 372.52 C 110.95 374.97 107.00 377.56 105.72 381.90 C 103.69 388.19 101.06 394.29 97.79 400.04 C 95.44 404.16 91.84 407.35 88.38 410.51 C 86.46 413.20 85.23 416.45 82.59 418.59 C 75.75 424.95 65.86 425.14 57.15 426.41 C 57.45 426.88 58.06 427.82 58.36 428.29 C 62.64 429.06 66.00 432.21 68.50 435.60 C 74.72 435.62 80.98 435.17 87.13 436.39 C 97.15 437.83 106.01 443.29 115.95 445.02 C 115.25 444.55 114.54 444.11 113.80 443.70 C 108.90 443.01 104.72 440.03 100.97 436.97 C 94.41 431.80 91.23 423.45 90.10 415.41 C 94.81 416.01 99.64 416.36 104.08 418.18 C 110.80 420.82 116.09 426.61 118.34 433.44 C 119.53 437.17 118.43 441.18 119.23 444.94 C 129.49 446.51 140.14 444.59 150.18 442.08 C 173.02 435.55 195.45 427.19 219.04 423.71 C 213.35 422.36 207.64 421.07 201.99 419.54 C 188.61 415.86 176.75 408.46 164.64 401.94 C 159.40 417.95 141.32 427.49 125.04 424.55 C 125.73 417.86 129.39 411.71 134.41 407.34 C 140.97 401.74 149.54 399.12 158.04 398.50 C 151.15 396.55 144.10 395.34 136.93 395.31 C 133.93 402.55 126.72 407.48 119.09 408.64 C 112.99 409.96 106.72 408.71 100.88 406.85 C 106.44 395.14 119.97 387.08 132.98 389.91 C 137.23 391.41 141.64 389.89 145.99 390.17 C 155.18 390.07 164.36 392.90 171.86 398.22 C 182.94 405.50 195.94 409.20 208.97 410.98 C 219.10 412.23 229.29 414.23 238.54 418.73 C 243.33 421.18 248.84 420.48 254.01 420.81 C 265.81 422.07 277.38 425.09 288.46 429.32 C 291.89 430.44 295.13 432.11 298.64 433.02 C 294.85 426.41 290.66 419.98 285.36 414.48 C 278.26 407.72 269.87 402.11 260.48 399.13 C 256.67 403.61 250.93 406.55 245.01 406.56 C 236.29 407.13 228.08 402.60 222.00 396.68 C 229.38 391.16 239.05 388.01 248.22 390.27 C 252.63 391.16 256.52 393.52 259.95 396.36 C 263.76 397.80 267.90 398.32 271.58 400.16 C 268.23 393.73 267.56 386.19 269.45 379.22 C 280.07 383.18 287.80 394.81 284.80 406.23 C 293.04 412.20 300.24 419.44 306.55 427.41 C 309.99 431.31 312.74 435.81 316.51 439.41 C 323.20 444.31 329.56 449.65 335.98 454.91 C 334.02 448.03 333.10 440.72 329.46 434.45 C 326.94 430.31 325.93 425.50 323.90 421.13 C 317.32 405.51 307.02 391.78 295.59 379.39 C 294.10 377.96 291.91 377.61 289.95 378.00 C 279.10 379.22 268.05 378.29 257.47 375.63 C 252.38 374.42 247.23 371.67 241.91 373.38 C 235.19 375.13 228.45 377.16 222.31 380.45 C 222.99 384.58 223.07 389.06 220.80 392.76 C 217.48 399.17 210.34 402.25 203.57 403.47 C 203.61 396.69 205.70 389.74 210.86 385.09 C 209.12 385.48 207.38 385.89 205.67 386.41 C 203.02 391.80 197.90 395.64 192.16 397.22 C 184.24 398.94 175.86 397.45 168.78 393.58 C 169.85 390.63 172.40 388.62 174.71 386.65 C 181.36 381.15 190.62 378.96 199.01 381.05 C 201.04 381.53 202.92 382.72 205.05 382.71 C 211.38 380.71 217.04 377.10 222.59 373.54 C 225.21 371.78 228.15 370.45 230.42 368.22 C 216.13 365.54 201.49 367.44 187.27 369.66 C 185.35 375.06 181.35 379.67 176.31 382.38 C 168.44 386.29 159.21 385.69 150.97 383.32 C 156.31 371.01 170.83 362.80 184.10 366.27 C 188.62 367.80 192.59 363.94 197.00 363.40 C 188.99 359.97 182.99 352.72 180.32 344.51 C 186.16 343.27 192.30 343.20 197.99 345.18 C 205.62 347.35 211.67 353.43 214.77 360.62 C 227.94 360.27 240.88 363.19 253.81 365.40 C 263.15 367.04 272.67 367.13 282.11 366.66 C 276.31 360.33 269.23 355.08 261.48 351.36 C 244.93 344.79 227.81 339.00 209.96 337.46 C 199.56 336.59 188.90 337.58 179.05 341.14 Z" />
<path fill="#231f20" opacity="1.00" d=" M 572.43 128.79 C 576.90 133.22 580.89 139.24 579.82 145.85 C 578.89 149.68 576.92 153.63 573.34 155.63 C 570.38 152.36 567.09 148.69 567.17 143.98 C 566.72 138.39 569.56 133.34 572.43 128.79 Z" />
<path fill="#231f20" opacity="1.00" d=" M 589.04 139.84 C 591.59 135.74 595.24 132.54 598.62 129.15 C 600.74 135.81 600.28 143.54 596.35 149.46 C 593.58 153.87 589.45 157.27 584.93 159.76 C 583.16 152.84 585.05 145.62 589.04 139.84 Z" />
<path fill="#231f20" opacity="1.00" d=" M 590.26 165.52 C 594.42 159.87 599.84 154.33 607.00 152.94 C 614.44 151.60 621.92 153.92 628.79 156.66 C 625.22 163.54 617.29 166.26 609.99 166.54 C 604.88 166.69 599.76 166.69 594.69 166.07 C 594.32 165.05 593.11 163.40 593.16 165.57 L 590.26 165.52 Z" />
<path fill="#231f20" opacity="1.00" d=" M 594.92 178.80 C 599.12 172.48 606.01 168.03 613.56 166.98 C 613.64 180.98 604.09 193.60 591.45 198.95 C 589.84 192.14 590.94 184.62 594.92 178.80 Z" />
<path fill="#231f20" opacity="1.00" d=" M 647.60 241.07 C 650.54 232.55 659.03 227.39 667.44 225.43 C 669.39 231.28 669.79 238.00 666.76 243.57 C 663.53 250.14 656.61 253.70 649.96 255.90 C 647.24 251.55 645.68 246.05 647.60 241.07 Z" />
<path fill="#231f20" opacity="1.00" d=" M 50.61 233.71 C 54.27 229.58 59.42 226.66 64.88 225.76 C 71.77 225.08 77.78 229.70 81.39 235.18 C 81.30 235.88 81.11 237.27 81.01 237.96 C 74.60 241.96 66.22 244.46 59.02 241.04 C 54.94 239.66 52.52 235.95 49.34 233.32 C 49.66 233.42 50.29 233.61 50.61 233.71 Z" />
<path fill="#231f20" opacity="1.00" d=" M 668.34 262.53 C 674.71 257.07 683.63 254.59 691.85 256.52 C 698.91 258.12 705.69 261.06 711.91 264.73 C 707.60 270.19 701.30 274.82 694.05 274.59 C 684.02 275.31 675.30 269.06 668.34 262.53 Z" />
<path fill="#231f20" opacity="1.00" d=" M 657.00 288.99 C 658.65 280.10 665.91 273.90 673.19 269.34 C 674.98 278.52 676.19 288.75 671.23 297.20 C 669.25 301.19 665.00 303.09 661.11 304.72 C 658.06 300.11 655.60 294.62 657.00 288.99 Z" />
<path fill="#231f20" opacity="1.00" d=" M 608.91 292.30 C 614.05 286.47 622.67 283.53 630.15 286.19 C 636.48 288.03 641.37 292.68 645.93 297.21 C 636.94 301.30 626.36 303.87 616.82 300.14 C 612.98 299.01 611.12 295.27 608.91 292.30 Z" />
<path fill="#231f20" opacity="1.00" d=" M 674.22 312.07 C 678.86 304.61 687.29 300.26 695.91 299.48 C 705.41 298.22 715.11 301.33 722.56 307.25 C 715.90 312.52 707.55 315.78 699.02 315.67 C 690.61 315.93 682.34 314.03 674.22 312.07 Z" />
<path fill="#231f20" opacity="1.00" d=" M 644.65 340.86 C 651.77 332.75 661.86 326.08 673.01 326.17 C 675.18 326.13 677.36 326.26 679.55 326.43 C 674.59 340.00 657.67 345.79 644.65 340.86 Z" />
<path fill="#231f20" opacity="1.00" d=" M 614.78 377.71 C 623.66 375.60 632.54 378.74 640.74 381.94 C 634.47 392.20 623.66 399.34 612.03 402.12 C 603.58 404.12 595.01 405.62 586.44 407.01 C 590.27 401.35 594.42 395.91 598.53 390.47 C 602.67 384.90 607.87 379.54 614.78 377.71 Z" />
<path fill="#231f20" opacity="1.00" d=" M 572.00 388.06 C 578.68 382.85 587.59 381.91 595.79 382.20 C 594.42 391.67 586.79 398.74 578.38 402.41 C 572.47 405.33 566.14 407.19 559.80 408.91 C 561.61 401.00 565.24 392.94 572.00 388.06 Z" />
</g>
</svg>
